<mxfile host="Electron" modified="2023-11-27T08:48:04.005Z" agent="Mozilla/5.0 (Windows NT 10.0; Win64; x64) AppleWebKit/537.36 (KHTML, like Gecko) draw.io/22.1.2 Chrome/114.0.5735.289 Electron/25.9.4 Safari/537.36" etag="f1mm4lLIWocpR3t_K3Ib" version="22.1.2" type="device">
  <diagram name="Page-1" id="8RDDD0qXWZ4KNdxAPwLu">
    <mxGraphModel dx="472" dy="835" grid="1" gridSize="10" guides="1" tooltips="1" connect="1" arrows="1" fold="1" page="1" pageScale="1" pageWidth="827" pageHeight="1169" math="0" shadow="0">
      <root>
        <mxCell id="0" />
        <mxCell id="1" parent="0" />
        <mxCell id="PBwODGiQvT0r2COkAxln-1" value="" style="ellipse;html=1;shape=startState;fillColor=#000000;strokeColor=#ff0000;" parent="1" vertex="1">
          <mxGeometry x="225" y="20" width="30" height="30" as="geometry" />
        </mxCell>
        <mxCell id="PBwODGiQvT0r2COkAxln-2" value="" style="edgeStyle=orthogonalEdgeStyle;html=1;verticalAlign=bottom;endArrow=open;endSize=8;strokeColor=#ff0000;rounded=0;" parent="1" source="PBwODGiQvT0r2COkAxln-1" edge="1">
          <mxGeometry relative="1" as="geometry">
            <mxPoint x="240" y="80" as="targetPoint" />
          </mxGeometry>
        </mxCell>
        <mxCell id="PBwODGiQvT0r2COkAxln-3" value="afficher : saisir la somme_S" style="rounded=1;whiteSpace=wrap;html=1;arcSize=40;fontColor=#000000;fillColor=#ffffc0;strokeColor=#ff0000;" parent="1" vertex="1">
          <mxGeometry x="180" y="80" width="120" height="40" as="geometry" />
        </mxCell>
        <mxCell id="PBwODGiQvT0r2COkAxln-4" value="" style="edgeStyle=orthogonalEdgeStyle;html=1;verticalAlign=bottom;endArrow=open;endSize=8;strokeColor=#ff0000;rounded=0;" parent="1" source="PBwODGiQvT0r2COkAxln-3" edge="1">
          <mxGeometry relative="1" as="geometry">
            <mxPoint x="240" y="160" as="targetPoint" />
          </mxGeometry>
        </mxCell>
        <mxCell id="PBwODGiQvT0r2COkAxln-5" value="lire : somme_S" style="rounded=1;whiteSpace=wrap;html=1;arcSize=40;fontColor=#000000;fillColor=#ffffc0;strokeColor=#ff0000;" parent="1" vertex="1">
          <mxGeometry x="180" y="160" width="120" height="40" as="geometry" />
        </mxCell>
        <mxCell id="PBwODGiQvT0r2COkAxln-6" value="" style="edgeStyle=orthogonalEdgeStyle;html=1;verticalAlign=bottom;endArrow=open;endSize=8;strokeColor=#ff0000;rounded=0;" parent="1" source="PBwODGiQvT0r2COkAxln-5" edge="1">
          <mxGeometry relative="1" as="geometry">
            <mxPoint x="240" y="240" as="targetPoint" />
          </mxGeometry>
        </mxCell>
        <mxCell id="PBwODGiQvT0r2COkAxln-8" value="saisir : nombre d&#39;année" style="rounded=1;whiteSpace=wrap;html=1;arcSize=40;fontColor=#000000;fillColor=#ffffc0;strokeColor=#ff0000;" parent="1" vertex="1">
          <mxGeometry x="180" y="240" width="120" height="40" as="geometry" />
        </mxCell>
        <mxCell id="PBwODGiQvT0r2COkAxln-9" value="" style="edgeStyle=orthogonalEdgeStyle;html=1;verticalAlign=bottom;endArrow=open;endSize=8;strokeColor=#ff0000;rounded=0;" parent="1" source="PBwODGiQvT0r2COkAxln-8" edge="1">
          <mxGeometry relative="1" as="geometry">
            <mxPoint x="240" y="320" as="targetPoint" />
          </mxGeometry>
        </mxCell>
        <mxCell id="PBwODGiQvT0r2COkAxln-13" value="afficher : &lt;br&gt;nombre_N" style="rounded=1;whiteSpace=wrap;html=1;arcSize=40;fontColor=#000000;fillColor=#ffffc0;strokeColor=#ff0000;" parent="1" vertex="1">
          <mxGeometry x="180" y="320" width="120" height="40" as="geometry" />
        </mxCell>
        <mxCell id="PBwODGiQvT0r2COkAxln-14" value="" style="edgeStyle=orthogonalEdgeStyle;html=1;verticalAlign=bottom;endArrow=open;endSize=8;strokeColor=#ff0000;rounded=0;" parent="1" source="PBwODGiQvT0r2COkAxln-13" edge="1">
          <mxGeometry relative="1" as="geometry">
            <mxPoint x="240" y="400" as="targetPoint" />
          </mxGeometry>
        </mxCell>
        <mxCell id="PBwODGiQvT0r2COkAxln-15" value="afficher : &lt;br&gt;saisir intérêt&amp;nbsp; I&amp;nbsp;" style="rounded=1;whiteSpace=wrap;html=1;arcSize=40;fontColor=#000000;fillColor=#ffffc0;strokeColor=#ff0000;" parent="1" vertex="1">
          <mxGeometry x="180" y="400" width="120" height="40" as="geometry" />
        </mxCell>
        <mxCell id="PBwODGiQvT0r2COkAxln-16" value="" style="edgeStyle=orthogonalEdgeStyle;html=1;verticalAlign=bottom;endArrow=open;endSize=8;strokeColor=#ff0000;rounded=0;" parent="1" source="PBwODGiQvT0r2COkAxln-15" edge="1">
          <mxGeometry relative="1" as="geometry">
            <mxPoint x="240" y="480" as="targetPoint" />
          </mxGeometry>
        </mxCell>
        <mxCell id="PBwODGiQvT0r2COkAxln-17" value="lire : interet_i" style="rounded=1;whiteSpace=wrap;html=1;arcSize=40;fontColor=#000000;fillColor=#ffffc0;strokeColor=#ff0000;" parent="1" vertex="1">
          <mxGeometry x="180" y="480" width="120" height="40" as="geometry" />
        </mxCell>
        <mxCell id="PBwODGiQvT0r2COkAxln-18" value="" style="edgeStyle=orthogonalEdgeStyle;html=1;verticalAlign=bottom;endArrow=open;endSize=8;strokeColor=#ff0000;rounded=0;" parent="1" source="PBwODGiQvT0r2COkAxln-17" edge="1">
          <mxGeometry relative="1" as="geometry">
            <mxPoint x="240" y="560" as="targetPoint" />
          </mxGeometry>
        </mxCell>
        <mxCell id="Qi_0kLHSJmK_3STkfmeQ-1" value="afficher : l&#39;intérêt simple est de :" style="rounded=1;whiteSpace=wrap;html=1;arcSize=40;fontColor=#000000;fillColor=#ffffc0;strokeColor=#ff0000;" vertex="1" parent="1">
          <mxGeometry x="180" y="560" width="120" height="40" as="geometry" />
        </mxCell>
        <mxCell id="Qi_0kLHSJmK_3STkfmeQ-2" value="" style="edgeStyle=orthogonalEdgeStyle;html=1;verticalAlign=bottom;endArrow=open;endSize=8;strokeColor=#ff0000;rounded=0;" edge="1" source="Qi_0kLHSJmK_3STkfmeQ-1" parent="1">
          <mxGeometry relative="1" as="geometry">
            <mxPoint x="240" y="640" as="targetPoint" />
          </mxGeometry>
        </mxCell>
        <mxCell id="Qi_0kLHSJmK_3STkfmeQ-3" value="calcul inétrêt simple :&lt;br&gt;somme_S*1&lt;br&gt;nombre_N*(interet_i/100)" style="rounded=1;whiteSpace=wrap;html=1;arcSize=40;fontColor=#000000;fillColor=#ffffc0;strokeColor=#ff0000;" vertex="1" parent="1">
          <mxGeometry x="160" y="640" width="160" height="40" as="geometry" />
        </mxCell>
        <mxCell id="Qi_0kLHSJmK_3STkfmeQ-4" value="" style="edgeStyle=orthogonalEdgeStyle;html=1;verticalAlign=bottom;endArrow=open;endSize=8;strokeColor=#ff0000;rounded=0;" edge="1" source="Qi_0kLHSJmK_3STkfmeQ-3" parent="1">
          <mxGeometry relative="1" as="geometry">
            <mxPoint x="240" y="720" as="targetPoint" />
          </mxGeometry>
        </mxCell>
        <mxCell id="Qi_0kLHSJmK_3STkfmeQ-5" value="afficher : intérêt composé est de :" style="rounded=1;whiteSpace=wrap;html=1;arcSize=40;fontColor=#000000;fillColor=#ffffc0;strokeColor=#ff0000;" vertex="1" parent="1">
          <mxGeometry x="180" y="720" width="120" height="40" as="geometry" />
        </mxCell>
        <mxCell id="Qi_0kLHSJmK_3STkfmeQ-6" value="" style="edgeStyle=orthogonalEdgeStyle;html=1;verticalAlign=bottom;endArrow=open;endSize=8;strokeColor=#ff0000;rounded=0;" edge="1" source="Qi_0kLHSJmK_3STkfmeQ-5" parent="1">
          <mxGeometry relative="1" as="geometry">
            <mxPoint x="240" y="800" as="targetPoint" />
          </mxGeometry>
        </mxCell>
        <mxCell id="Qi_0kLHSJmK_3STkfmeQ-7" value="calcul interet composé :&lt;br&gt;somme_S*(1&lt;br&gt;(interet/100)^N" style="rounded=1;whiteSpace=wrap;html=1;arcSize=40;fontColor=#000000;fillColor=#ffffc0;strokeColor=#ff0000;" vertex="1" parent="1">
          <mxGeometry x="160" y="800" width="160" height="40" as="geometry" />
        </mxCell>
        <mxCell id="Qi_0kLHSJmK_3STkfmeQ-8" value="" style="edgeStyle=orthogonalEdgeStyle;html=1;verticalAlign=bottom;endArrow=open;endSize=8;strokeColor=#ff0000;rounded=0;" edge="1" source="Qi_0kLHSJmK_3STkfmeQ-7" parent="1">
          <mxGeometry relative="1" as="geometry">
            <mxPoint x="240" y="880" as="targetPoint" />
          </mxGeometry>
        </mxCell>
        <mxCell id="Qi_0kLHSJmK_3STkfmeQ-9" value="" style="ellipse;html=1;shape=endState;fillColor=#000000;strokeColor=#ff0000;" vertex="1" parent="1">
          <mxGeometry x="225" y="880" width="30" height="30" as="geometry" />
        </mxCell>
      </root>
    </mxGraphModel>
  </diagram>
</mxfile>
